<?xml version="1.0" encoding="utf-8"?>
<!-- Generator: Adobe Illustrator 26.0.1, SVG Export Plug-In . SVG Version: 6.00 Build 0)  -->
<svg version="1.1" id="Layer_1" xmlns="http://www.w3.org/2000/svg" xmlns:xlink="http://www.w3.org/1999/xlink" x="0px" y="0px"
	 viewBox="0 0 48.14 12.58" style="enable-background:new 0 0 48.14 12.58;" xml:space="preserve">
<path d="M12.08,2.85c0.26,0.2,0.47,0.42,0.61,0.67c0.14,0.25,0.21,0.5,0.21,0.76c0,0.42-0.15,0.76-0.46,1.03s-0.75,0.44-1.31,0.52
	c0.98,0.34,1.46,0.97,1.46,1.87c0,0.34-0.08,0.66-0.23,0.96c-0.16,0.3-0.36,0.57-0.62,0.8c-0.26,0.23-0.56,0.42-0.91,0.55
	c-0.35,0.14-0.71,0.2-1.1,0.2c-0.37,0-0.66-0.09-0.88-0.28C8.63,9.75,8.52,9.49,8.52,9.16c0-0.25,0.06-0.5,0.19-0.77
	C8.84,8.13,9,7.89,9.2,7.67c0.2-0.22,0.42-0.39,0.67-0.53c0.25-0.14,0.49-0.2,0.72-0.2c0.26,0,0.47,0.08,0.63,0.24
	c0.16,0.16,0.25,0.37,0.25,0.62c0,0.08-0.01,0.17-0.04,0.28c-0.03,0.1-0.06,0.2-0.1,0.3c-0.04,0.1-0.08,0.18-0.12,0.24
	c-0.04,0.06-0.08,0.1-0.11,0.1c-0.04,0-0.06-0.02-0.06-0.05c0-0.02,0.01-0.04,0.02-0.07c0.1-0.15,0.18-0.29,0.23-0.41
	c0.05-0.12,0.07-0.25,0.07-0.39c0-0.22-0.07-0.4-0.22-0.54c-0.14-0.14-0.33-0.2-0.56-0.2c-0.22,0-0.45,0.07-0.68,0.2
	c-0.23,0.13-0.44,0.3-0.62,0.5c-0.19,0.2-0.34,0.43-0.46,0.68c-0.12,0.25-0.17,0.5-0.17,0.74c0,0.26,0.09,0.47,0.26,0.64
	s0.4,0.26,0.66,0.26c0.3,0,0.59-0.08,0.88-0.24C10.74,9.67,11,9.46,11.22,9.2c0.22-0.26,0.4-0.56,0.54-0.89
	c0.14-0.33,0.2-0.67,0.2-1.03c0-0.34-0.07-0.63-0.22-0.85c-0.14-0.22-0.38-0.42-0.72-0.58c-0.09,0.02-0.16,0.03-0.22,0.03
	c-0.06,0-0.11,0.01-0.16,0.02c-0.04,0.01-0.08,0.01-0.12,0.01c-0.04,0-0.08,0-0.13,0c-0.3,0-0.44-0.05-0.44-0.14
	c0-0.07,0.12-0.11,0.37-0.11c0.1,0,0.19,0.01,0.29,0.02s0.23,0.04,0.4,0.08c0.41-0.13,0.73-0.35,0.97-0.66s0.35-0.67,0.35-1.08
	c0-0.21-0.04-0.39-0.11-0.56c-0.07-0.16-0.19-0.33-0.35-0.5c-0.42,0.32-0.83,0.77-1.25,1.35c-0.42,0.58-0.81,1.24-1.16,1.99
	c-0.24,0.49-0.46,0.9-0.66,1.24C8.62,7.89,8.41,8.18,8.2,8.42C7.99,8.66,7.76,8.87,7.5,9.04C7.24,9.22,6.94,9.39,6.6,9.56
	c-0.8,0.4-1.53,0.6-2.18,0.6c-0.26,0-0.51-0.03-0.73-0.1C3.47,10,3.28,9.91,3.11,9.8C2.95,9.69,2.82,9.55,2.73,9.4
	S2.59,9.08,2.59,8.9c0-0.2,0.06-0.37,0.18-0.52c0.12-0.14,0.26-0.22,0.42-0.22c0.11,0,0.2,0.04,0.26,0.11s0.1,0.17,0.1,0.28
	c0,0.14-0.04,0.25-0.12,0.34s-0.18,0.14-0.3,0.14c-0.09,0-0.16-0.03-0.22-0.09S2.84,8.82,2.84,8.73c0-0.09-0.01-0.13-0.02-0.13
	c-0.02,0-0.05,0.03-0.07,0.1C2.73,8.77,2.72,8.84,2.72,8.91c0,0.33,0.16,0.6,0.47,0.81c0.32,0.21,0.72,0.32,1.21,0.32
	c0.42,0,0.82-0.08,1.22-0.24c0.4-0.16,0.77-0.4,1.11-0.71c0.15-0.14,0.28-0.26,0.39-0.37c0.11-0.11,0.24-0.27,0.39-0.47
	c0.15-0.2,0.35-0.48,0.58-0.83c0.24-0.35,0.55-0.84,0.95-1.45c0.19-0.3,0.41-0.6,0.65-0.91s0.49-0.6,0.74-0.88s0.5-0.53,0.73-0.75
	c0.24-0.22,0.45-0.4,0.63-0.53c-0.3-0.26-0.69-0.45-1.15-0.58c-0.46-0.13-0.97-0.2-1.54-0.2c-1.65,0-3.08,0.6-4.3,1.79
	C4.34,4.37,3.97,4.84,3.71,5.33C3.45,5.81,3.32,6.26,3.32,6.67c0,0.44,0.14,0.79,0.42,1.04C4.02,7.97,4.4,8.09,4.88,8.09
	c0.39,0,0.81-0.11,1.24-0.32s0.84-0.48,1.2-0.81c0.36-0.33,0.66-0.69,0.9-1.08s0.35-0.76,0.35-1.12c0-0.27-0.08-0.48-0.23-0.63
	C8.2,3.99,7.98,3.92,7.7,3.92c-0.29,0-0.6,0.09-0.94,0.28s-0.65,0.42-0.94,0.7C5.54,5.17,5.31,5.47,5.12,5.8
	C4.93,6.12,4.84,6.43,4.84,6.71c0,0.14,0.05,0.26,0.14,0.36c0.09,0.1,0.2,0.16,0.33,0.16c0.06,0.01,0.1,0.02,0.1,0.05
	c0,0.03-0.04,0.05-0.11,0.05c-0.18,0-0.34-0.08-0.47-0.25c-0.13-0.17-0.2-0.38-0.2-0.62c0-0.3,0.09-0.61,0.28-0.92
	c0.19-0.31,0.43-0.6,0.72-0.85s0.62-0.46,0.98-0.62c0.36-0.16,0.72-0.24,1.07-0.24c0.32,0,0.57,0.08,0.74,0.25
	C8.6,4.22,8.69,4.45,8.69,4.75c0,0.26-0.06,0.52-0.17,0.79S8.26,6.06,8.07,6.32c-0.19,0.26-0.41,0.5-0.66,0.73s-0.52,0.43-0.8,0.6
	C6.32,7.82,6.03,7.95,5.74,8.05C5.44,8.15,5.15,8.2,4.87,8.2c-0.54,0-0.98-0.16-1.3-0.49C3.25,7.39,3.08,6.95,3.08,6.4
	c0-0.37,0.08-0.73,0.23-1.09c0.16-0.36,0.37-0.7,0.65-1.03c0.28-0.32,0.61-0.63,0.98-0.91C5.33,3.1,5.74,2.86,6.19,2.66
	C6.64,2.46,7.11,2.3,7.6,2.18C8.09,2.07,8.59,2.01,9.1,2.01c1.14,0,2.1,0.26,2.89,0.77c0.71-0.45,1.4-0.67,2.08-0.67
	c0.53,0,0.95,0.16,1.27,0.47S15.8,3.3,15.8,3.81c0,0.1-0.01,0.22-0.02,0.34c-0.02,0.12-0.04,0.23-0.06,0.34s-0.05,0.19-0.08,0.26
	c-0.03,0.07-0.05,0.1-0.08,0.1c-0.04,0-0.06-0.02-0.06-0.06c0-0.02,0-0.03,0.01-0.05c0.05-0.13,0.09-0.27,0.11-0.44
	c0.03-0.16,0.04-0.31,0.04-0.45c0-0.5-0.15-0.89-0.44-1.19s-0.68-0.44-1.16-0.44c-0.34,0-0.66,0.05-0.98,0.16
	C12.77,2.47,12.44,2.63,12.08,2.85z"/>
<path d="M15.2,8.51c-0.74,1.02-1.28,1.52-1.63,1.52c-0.17,0-0.31-0.06-0.41-0.19C13.05,9.73,13,9.57,13,9.37
	c0-0.1,0.01-0.2,0.02-0.28c0.01-0.08,0.06-0.2,0.13-0.35c0.08-0.15,0.19-0.35,0.35-0.62c0.16-0.26,0.38-0.64,0.67-1.12
	c0.14-0.23,0.29-0.48,0.45-0.76c0.16-0.27,0.33-0.55,0.49-0.82s0.31-0.54,0.46-0.8c0.15-0.26,0.28-0.48,0.39-0.68
	c0.06,0.02,0.12,0.03,0.16,0.04c0.04,0.01,0.09,0.01,0.16,0.01c0.09,0,0.16,0,0.21-0.01c0.05-0.01,0.12-0.03,0.2-0.06
	c-0.54,0.91-1,1.68-1.38,2.3c-0.38,0.62-0.68,1.14-0.92,1.55c-0.24,0.41-0.43,0.73-0.56,0.96c-0.13,0.23-0.23,0.41-0.29,0.53
	s-0.1,0.21-0.11,0.27c-0.01,0.06-0.02,0.11-0.02,0.16c0,0.18,0.08,0.26,0.23,0.26c0.33,0,0.93-0.62,1.8-1.86
	c0.02-0.04,0.04-0.06,0.07-0.06c0.02,0,0.02,0.01,0.02,0.04s-0.02,0.06-0.06,0.1L15.2,8.51z"/>
<path d="M18.11,8.53c-0.38,0.48-0.76,0.85-1.12,1.12c-0.36,0.26-0.68,0.4-0.96,0.4c-0.28,0-0.51-0.1-0.7-0.29
	c-0.18-0.2-0.28-0.44-0.28-0.74c0-0.7,0.49-1.32,1.48-1.86c0.52-0.28,0.94-0.42,1.26-0.42c0.14,0,0.25,0.04,0.35,0.13
	c0.1,0.08,0.15,0.19,0.15,0.3c0,0.28-0.18,0.52-0.55,0.71c-0.36,0.2-0.98,0.38-1.84,0.56c-0.11,0.18-0.21,0.35-0.28,0.54
	c-0.08,0.18-0.11,0.34-0.11,0.47c0,0.15,0.05,0.27,0.15,0.36c0.1,0.09,0.23,0.14,0.39,0.14c0.29,0,0.63-0.16,1.04-0.48
	c0.4-0.32,0.81-0.76,1.23-1.33c0.06-0.06,0.1-0.1,0.12-0.1c0.02,0,0.02,0.01,0.02,0.04c0,0.01-0.04,0.06-0.11,0.16L18.11,8.53z
	 M15.96,8.35c0.28-0.07,0.54-0.16,0.79-0.27c0.25-0.11,0.46-0.22,0.64-0.34c0.18-0.12,0.32-0.24,0.43-0.37s0.16-0.25,0.16-0.37
	c0-0.13-0.07-0.19-0.2-0.19c-0.1,0-0.23,0.04-0.37,0.11c-0.14,0.08-0.29,0.18-0.45,0.32c-0.16,0.14-0.33,0.3-0.5,0.49
	C16.29,7.91,16.12,8.12,15.96,8.35z"/>
<path d="M21.31,6.77c0.06,0.02,0.12,0.03,0.16,0.03c0.04,0,0.09,0.01,0.16,0.01c0.07,0,0.14,0,0.19-0.01c0.06,0,0.13-0.01,0.22-0.03
	L21,8.49c-0.18,0.3-0.31,0.55-0.4,0.75c-0.09,0.2-0.14,0.35-0.14,0.44c0,0.18,0.08,0.28,0.23,0.28c0.08,0,0.18-0.05,0.31-0.14
	c0.13-0.1,0.27-0.23,0.44-0.4s0.34-0.36,0.52-0.59c0.18-0.22,0.36-0.47,0.53-0.73c0.02-0.04,0.04-0.06,0.06-0.06
	s0.04,0.01,0.04,0.04c0,0.01-0.03,0.06-0.09,0.14s-0.13,0.19-0.22,0.31c-0.09,0.12-0.18,0.24-0.28,0.37s-0.19,0.24-0.26,0.32
	c-0.26,0.3-0.47,0.52-0.63,0.64c-0.16,0.12-0.32,0.19-0.46,0.19c-0.18,0-0.33-0.07-0.44-0.2c-0.11-0.13-0.17-0.3-0.17-0.51
	c0-0.12,0.01-0.23,0.04-0.33c0.03-0.1,0.08-0.22,0.15-0.35c-0.2,0.28-0.37,0.51-0.52,0.68c-0.14,0.18-0.27,0.32-0.39,0.43
	C19.2,9.86,19.09,9.94,19,9.98s-0.19,0.06-0.28,0.06c-0.21,0-0.38-0.09-0.52-0.26c-0.14-0.18-0.21-0.4-0.21-0.67
	c0-0.36,0.14-0.71,0.41-1.06c0.27-0.34,0.66-0.66,1.18-0.94c0.47-0.26,0.85-0.38,1.13-0.38c0.24,0,0.36,0.12,0.36,0.35
	c0,0.07-0.02,0.16-0.05,0.26L21.31,6.77z M20.71,6.81c-0.12,0-0.26,0.05-0.42,0.14c-0.16,0.1-0.32,0.22-0.49,0.38
	c-0.17,0.16-0.34,0.33-0.5,0.53c-0.17,0.2-0.32,0.4-0.44,0.61s-0.23,0.4-0.31,0.59c-0.08,0.19-0.12,0.36-0.12,0.5
	c0,0.26,0.11,0.38,0.34,0.38c0.08,0,0.16-0.02,0.25-0.07s0.18-0.12,0.29-0.23s0.24-0.25,0.38-0.41s0.3-0.38,0.49-0.64
	c0.54-0.73,0.82-1.23,0.82-1.51C20.98,6.91,20.89,6.81,20.71,6.81z"/>
<path d="M24.54,6.73c0.14,0,0.24,0.05,0.32,0.14c0.08,0.09,0.11,0.22,0.11,0.38c0,0.14-0.03,0.28-0.08,0.42
	c-0.05,0.14-0.12,0.27-0.2,0.39c-0.08,0.12-0.17,0.21-0.26,0.29c-0.1,0.08-0.19,0.11-0.28,0.11c-0.07,0-0.13-0.02-0.19-0.07
	c-0.05-0.05-0.08-0.11-0.08-0.19c0-0.12,0.04-0.22,0.11-0.3c0.08-0.08,0.22-0.17,0.43-0.28c0.28-0.14,0.42-0.32,0.42-0.54
	c0-0.08-0.03-0.14-0.08-0.19c-0.05-0.05-0.12-0.07-0.21-0.07c-0.16,0-0.35,0.09-0.57,0.28c-0.22,0.19-0.43,0.42-0.63,0.68
	c-0.2,0.27-0.37,0.55-0.5,0.85c-0.14,0.3-0.2,0.56-0.2,0.77c0,0.17,0.05,0.3,0.14,0.4c0.09,0.1,0.22,0.15,0.38,0.15
	c0.13,0,0.28-0.04,0.45-0.13c0.17-0.09,0.35-0.21,0.55-0.37c0.19-0.16,0.39-0.35,0.59-0.58c0.2-0.22,0.41-0.47,0.61-0.74
	c0.04-0.06,0.08-0.1,0.11-0.1c0.02,0,0.02,0.01,0.02,0.04c0,0.01-0.03,0.05-0.08,0.11c-0.05,0.07-0.12,0.15-0.2,0.25
	c-0.08,0.1-0.17,0.2-0.26,0.31c-0.1,0.11-0.19,0.22-0.29,0.31c-0.33,0.36-0.61,0.61-0.84,0.76c-0.23,0.15-0.46,0.22-0.7,0.22
	c-0.14,0-0.26-0.03-0.38-0.08c-0.12-0.06-0.23-0.13-0.32-0.23c-0.09-0.1-0.16-0.21-0.22-0.34c-0.05-0.13-0.08-0.26-0.08-0.41
	c0-0.34,0.13-0.68,0.4-1.03c0.26-0.35,0.62-0.65,1.08-0.91c0.18-0.1,0.36-0.18,0.52-0.24C24.29,6.75,24.43,6.73,24.54,6.73z"/>
<path d="M28.93,8.51c-0.38,0.53-0.71,0.91-0.97,1.16c-0.26,0.24-0.49,0.37-0.67,0.37s-0.34-0.07-0.46-0.2
	c-0.12-0.13-0.18-0.3-0.18-0.51c0-0.16,0.03-0.32,0.1-0.47c0.07-0.15,0.18-0.35,0.34-0.6c0.15-0.22,0.27-0.39,0.37-0.53
	c0.09-0.14,0.16-0.25,0.21-0.34c0.05-0.08,0.08-0.15,0.1-0.2c0.02-0.05,0.02-0.1,0.02-0.15c0-0.06-0.02-0.12-0.07-0.16
	s-0.1-0.07-0.17-0.07c-0.23,0-0.55,0.23-0.96,0.7c-0.12,0.14-0.23,0.27-0.32,0.39c-0.1,0.12-0.2,0.28-0.32,0.46
	c-0.12,0.18-0.25,0.4-0.4,0.66c-0.15,0.26-0.34,0.59-0.56,1c-0.06-0.02-0.11-0.03-0.15-0.03c-0.04,0-0.09-0.01-0.15-0.01
	s-0.12,0-0.17,0.01c-0.05,0-0.11,0.01-0.18,0.03c0.14-0.24,0.27-0.48,0.4-0.73c0.13-0.24,0.29-0.52,0.46-0.83
	c0.09-0.17,0.18-0.33,0.27-0.5c0.09-0.16,0.18-0.33,0.27-0.49c0.39-0.63,0.79-1.3,1.19-2.02l0.89-1.51
	c0.06,0.02,0.11,0.03,0.15,0.03c0.04,0,0.09,0.01,0.15,0.01c0.09,0,0.16,0,0.22-0.01s0.13-0.02,0.22-0.05
	c-0.3,0.5-0.61,0.99-0.91,1.47c-0.3,0.48-0.6,0.97-0.91,1.46c-0.06,0.1-0.12,0.2-0.17,0.28c-0.05,0.08-0.1,0.17-0.17,0.28
	s-0.14,0.24-0.23,0.38c-0.09,0.15-0.2,0.34-0.35,0.57c0.38-0.56,0.72-0.97,1-1.24c0.28-0.26,0.53-0.4,0.74-0.4
	c0.17,0,0.31,0.07,0.43,0.22s0.18,0.32,0.18,0.53c0,0.08-0.01,0.16-0.02,0.23s-0.04,0.15-0.08,0.24c-0.04,0.09-0.09,0.19-0.16,0.3
	c-0.07,0.11-0.15,0.24-0.26,0.4c-0.13,0.18-0.23,0.33-0.31,0.45c-0.08,0.12-0.13,0.21-0.17,0.29c-0.04,0.08-0.07,0.14-0.08,0.19
	C27.1,9.61,27.1,9.65,27.1,9.7c0,0.17,0.08,0.25,0.25,0.25c0.15,0,0.35-0.12,0.59-0.36c0.24-0.24,0.55-0.61,0.92-1.12l0.18-0.25
	l0.11-0.13c0.02-0.04,0.04-0.06,0.07-0.06c0.02,0,0.02,0.01,0.02,0.02c0,0.03-0.02,0.07-0.06,0.11L28.93,8.51z"/>
<path d="M31.1,8.95c-0.25,0.35-0.5,0.62-0.74,0.81s-0.48,0.28-0.71,0.28c-0.23,0-0.43-0.1-0.6-0.29c-0.17-0.19-0.25-0.42-0.25-0.7
	c0-0.61,0.4-1.19,1.19-1.74c0.26-0.19,0.51-0.34,0.75-0.44c0.24-0.1,0.44-0.15,0.62-0.15c0.16,0,0.28,0.05,0.37,0.14
	c0.09,0.1,0.13,0.23,0.13,0.4c0,0.2-0.07,0.45-0.2,0.75c-0.13,0.3-0.3,0.59-0.51,0.87c0.08,0.05,0.17,0.07,0.26,0.07
	c0.18,0,0.38-0.08,0.61-0.25s0.42-0.36,0.58-0.59c0.05-0.06,0.08-0.08,0.1-0.08c0.02,0,0.02,0.01,0.02,0.02
	c0,0.02-0.04,0.08-0.11,0.18c-0.07,0.1-0.15,0.18-0.24,0.26c-0.34,0.34-0.65,0.52-0.95,0.52C31.31,9.02,31.2,8.99,31.1,8.95z
	 M31.68,7.72c0.06-0.14,0.1-0.29,0.1-0.46c0-0.32-0.14-0.48-0.43-0.48c-0.18,0-0.38,0.1-0.62,0.3c-0.24,0.2-0.46,0.44-0.68,0.73
	c-0.22,0.28-0.4,0.58-0.55,0.89s-0.22,0.58-0.22,0.82c0,0.12,0.04,0.22,0.11,0.29c0.07,0.08,0.16,0.11,0.28,0.11
	c0.21,0,0.43-0.09,0.67-0.27c0.24-0.18,0.47-0.44,0.71-0.77c-0.11-0.12-0.17-0.25-0.17-0.38c0-0.1,0.02-0.2,0.07-0.3
	s0.1-0.2,0.16-0.29c0.06-0.09,0.14-0.17,0.22-0.22c0.08-0.06,0.16-0.08,0.23-0.08C31.61,7.6,31.66,7.64,31.68,7.72z"/>
<path d="M33.35,8.43c0.48-0.78,0.72-1.26,0.72-1.45c0-0.11-0.04-0.17-0.13-0.17c-0.05,0-0.11,0.03-0.2,0.1
	c-0.08,0.07-0.18,0.16-0.29,0.27c-0.11,0.11-0.22,0.24-0.34,0.4c-0.12,0.15-0.24,0.32-0.36,0.49c-0.05,0.06-0.08,0.08-0.1,0.08
	s-0.02-0.01-0.02-0.04c0-0.02,0.01-0.03,0.02-0.05l0.11-0.14c0.27-0.39,0.51-0.69,0.72-0.89s0.38-0.31,0.5-0.31
	c0.14,0,0.25,0.06,0.34,0.17c0.09,0.11,0.13,0.26,0.13,0.43c0,0.16-0.04,0.33-0.11,0.52c-0.07,0.18-0.2,0.41-0.37,0.68
	c0.11-0.14,0.21-0.24,0.29-0.32c0.08-0.08,0.18-0.16,0.28-0.25c0.15-0.35,0.34-0.64,0.56-0.88s0.42-0.35,0.59-0.35
	c0.05,0,0.09,0.02,0.13,0.05c0.04,0.03,0.05,0.07,0.05,0.11c0,0.18-0.27,0.45-0.82,0.8C35,7.73,34.94,7.77,34.87,7.81
	s-0.13,0.08-0.19,0.12l-0.07,0.06c-0.06,0.18-0.08,0.32-0.08,0.44c0,0.15,0.03,0.27,0.1,0.36c0.07,0.09,0.16,0.13,0.27,0.13
	c0.14,0,0.3-0.07,0.48-0.2c0.18-0.14,0.36-0.32,0.52-0.55c0.08-0.09,0.13-0.13,0.14-0.13c0.02,0,0.04,0.01,0.04,0.04
	c0,0.02-0.04,0.07-0.11,0.16c-0.07,0.09-0.15,0.18-0.24,0.28c-0.3,0.33-0.58,0.49-0.84,0.49c-0.13,0-0.23-0.05-0.32-0.14
	c-0.08-0.1-0.13-0.22-0.13-0.37c0-0.11,0.02-0.25,0.07-0.42c-0.12,0.11-0.23,0.21-0.32,0.31c-0.09,0.09-0.19,0.2-0.28,0.34
	c-0.1,0.13-0.21,0.3-0.33,0.5c-0.12,0.2-0.28,0.46-0.47,0.79c-0.08-0.01-0.14-0.01-0.19-0.02s-0.1-0.01-0.17-0.01
	c-0.06,0-0.11,0-0.16,0.01c-0.05,0-0.12,0.01-0.2,0.02L33.35,8.43z"/>
<path d="M40.64,3.94c0.08,0.02,0.14,0.04,0.19,0.05C40.88,4,40.95,4,41.03,4c0.06,0,0.11,0,0.16-0.01c0.05,0,0.12-0.01,0.2-0.02
	c-0.49,0.78-0.91,1.45-1.26,2.01s-0.65,1.05-0.9,1.45c-0.25,0.4-0.45,0.74-0.61,1c-0.16,0.26-0.28,0.48-0.36,0.64
	s-0.14,0.29-0.17,0.38c-0.03,0.09-0.05,0.17-0.05,0.22c0,0.18,0.08,0.26,0.24,0.26c0.08,0,0.18-0.04,0.31-0.13s0.27-0.21,0.43-0.38
	c0.16-0.16,0.33-0.36,0.51-0.59s0.37-0.48,0.56-0.76c0.02-0.04,0.04-0.06,0.06-0.06s0.04,0.01,0.04,0.04c0,0.02-0.02,0.05-0.06,0.1
	l-0.25,0.35c-0.39,0.54-0.72,0.93-0.97,1.17c-0.26,0.24-0.48,0.35-0.66,0.35c-0.18,0-0.33-0.07-0.44-0.2
	c-0.11-0.14-0.17-0.31-0.17-0.52c0-0.12,0.01-0.23,0.04-0.34c0.03-0.1,0.09-0.24,0.17-0.4c-0.19,0.28-0.36,0.51-0.51,0.7
	s-0.28,0.33-0.4,0.44c-0.12,0.11-0.23,0.19-0.32,0.24c-0.1,0.05-0.19,0.07-0.29,0.07c-0.21,0-0.38-0.09-0.52-0.26
	c-0.14-0.18-0.21-0.4-0.21-0.67c0-0.65,0.4-1.23,1.2-1.75c0.28-0.18,0.56-0.33,0.83-0.45c0.28-0.12,0.5-0.17,0.67-0.17
	c0.11,0,0.2,0.03,0.26,0.1c0.06,0.06,0.1,0.15,0.1,0.25c0,0.11-0.03,0.24-0.1,0.37L40.64,3.94z M38.28,6.81
	c-0.18,0-0.39,0.1-0.65,0.31c-0.26,0.21-0.5,0.46-0.74,0.74c-0.24,0.29-0.44,0.59-0.61,0.9s-0.25,0.58-0.25,0.79
	c0,0.12,0.03,0.22,0.09,0.29c0.06,0.07,0.14,0.11,0.23,0.11c0.17,0,0.38-0.12,0.62-0.37c0.25-0.25,0.58-0.67,0.98-1.26
	c0.22-0.3,0.37-0.55,0.47-0.74c0.1-0.19,0.14-0.34,0.14-0.46C38.57,6.91,38.47,6.81,38.28,6.81z"/>
<path d="M41.81,8.51c-0.74,1.02-1.28,1.52-1.63,1.52c-0.17,0-0.31-0.06-0.41-0.19c-0.11-0.12-0.16-0.29-0.16-0.49
	c0-0.1,0.01-0.2,0.02-0.28c0.01-0.08,0.06-0.2,0.13-0.35c0.08-0.15,0.19-0.35,0.35-0.62c0.16-0.26,0.38-0.64,0.67-1.12
	c0.14-0.23,0.29-0.48,0.45-0.76c0.16-0.27,0.33-0.55,0.49-0.82s0.31-0.54,0.46-0.8c0.15-0.26,0.28-0.48,0.39-0.68
	c0.06,0.02,0.12,0.03,0.16,0.04c0.04,0.01,0.09,0.01,0.16,0.01c0.09,0,0.16,0,0.21-0.01c0.05-0.01,0.12-0.03,0.2-0.06
	c-0.54,0.91-1,1.68-1.38,2.3c-0.38,0.62-0.68,1.14-0.92,1.55c-0.24,0.41-0.43,0.73-0.56,0.96c-0.13,0.23-0.23,0.41-0.29,0.53
	s-0.1,0.21-0.11,0.27C40,9.59,40,9.64,40,9.69c0,0.18,0.08,0.26,0.23,0.26c0.33,0,0.93-0.62,1.8-1.86c0.02-0.04,0.04-0.06,0.07-0.06
	c0.02,0,0.02,0.01,0.02,0.04s-0.02,0.06-0.06,0.1L41.81,8.51z"/>
<path d="M44.71,8.53c-0.38,0.48-0.76,0.85-1.12,1.12c-0.36,0.26-0.68,0.4-0.96,0.4c-0.28,0-0.51-0.1-0.7-0.29
	c-0.18-0.2-0.28-0.44-0.28-0.74c0-0.7,0.49-1.32,1.48-1.86c0.52-0.28,0.94-0.42,1.26-0.42c0.14,0,0.25,0.04,0.35,0.13
	c0.1,0.08,0.15,0.19,0.15,0.3c0,0.28-0.18,0.52-0.55,0.71c-0.36,0.2-0.98,0.38-1.84,0.56c-0.11,0.18-0.21,0.35-0.28,0.54
	c-0.08,0.18-0.11,0.34-0.11,0.47c0,0.15,0.05,0.27,0.15,0.36c0.1,0.09,0.23,0.14,0.39,0.14c0.29,0,0.63-0.16,1.04-0.48
	c0.4-0.32,0.81-0.76,1.23-1.33c0.06-0.06,0.1-0.1,0.12-0.1c0.02,0,0.02,0.01,0.02,0.04c0,0.01-0.04,0.06-0.11,0.16L44.71,8.53z
	 M42.56,8.35c0.28-0.07,0.54-0.16,0.79-0.27C43.6,7.97,43.82,7.85,44,7.73c0.18-0.12,0.32-0.24,0.43-0.37s0.16-0.25,0.16-0.37
	c0-0.13-0.07-0.19-0.2-0.19c-0.1,0-0.23,0.04-0.37,0.11c-0.14,0.08-0.29,0.18-0.45,0.32c-0.16,0.14-0.33,0.3-0.5,0.49
	C42.89,7.91,42.72,8.12,42.56,8.35z"/>
</svg>
