<?xml version="1.0" encoding="utf-8"?>
<!-- Generator: Adobe Illustrator 26.0.1, SVG Export Plug-In . SVG Version: 6.00 Build 0)  -->
<svg version="1.1" id="Layer_1" xmlns="http://www.w3.org/2000/svg" xmlns:xlink="http://www.w3.org/1999/xlink" x="0px" y="0px"
	 viewBox="0 0 841.9 595.3" style="enable-background:new 0 0 841.9 595.3;" xml:space="preserve">
<style type="text/css">
	.st0{fill:#252121;}
	.st1{fill:#CE0B2E;}
	.st2{fill:#288B00;}
</style>
<g>
	<path class="st0" d="M274.5,146.8c-6.4,1-12.9,1.4-19.1,3.2c-1.9,0.5-3.8,0.8-5.8,1.2c-1.5,0.3-3,0.4-3.8-1.4
		c-0.7-1.8,0.1-3.2,1.4-4.2c7.4-5.6,14.7-11.3,22.3-16.6c7.4-5.1,14.6-10.6,22.8-14.3c8.3-3.7,16.8-7.1,25.5-9.7
		c3.8-1.2,7.6-2.6,11.4-3.9c7.2-2.5,14.4-4.9,22.3-4c4.4,0.5,8.7,1,13,1.9c2,0.4,2.5,0.2,1.8-1.9c-1.2-3.7-1.9-7.6-3.3-11.3
		c-1.4-3.9,1.1-5.9,3.3-7.8c5-4.2,10.3-7.8,16.6-10c5.8-2,10.9-0.2,16,1.5c3,1,5.9,2.2,8.5,4.2c1.2,0.9,2.5,0.7,3.7,0.2
		c13.4-4.9,26.8-3.8,40.4-0.2c8.8,2.3,17.4,5.2,25.3,9.4c6.8,3.6,12.9,2.5,19.7,0.8c11.1-2.7,21.7-6.5,32.2-10.9
		c5.2-2.2,10.6-3.9,16-5.5c4.7-1.4,8.9,0.4,13.1,1.6c3.9,1.1,7.6,2.9,10.9,5.4c1.4,1,2.8,2.4,2.4,4.4c-0.4,2-1.8,3-3.8,3.6
		c-14.6,4.1-29.7,5.2-44.4,8.5c-0.6,0.1-1.5-0.2-1.6,0.7c-0.1,0.7,0.6,1.1,1.2,1.5c9.6,6.1,17.5,14.1,25.8,21.6
		c8.4,7.7,16.5,15.8,24.8,23.7c11.1,10.4,21.9,21.3,32.6,32.1c6.1,6.2,12.1,12.5,18,19c5.5,6,10.7,12.1,15.6,18.5
		c4.5,5.9,8.8,11.9,12.7,18.3c3.2,5.2,6.4,10.4,9.1,15.9c6.7,13.6,11.9,27.6,13.3,42.9c1.4,15.4,0.4,30.5-2.6,45.6
		c-2,9.9-4.8,19.5-8.3,28.9c-4,10.8-9.1,20.9-15.1,30.6c-5.5,8.9-11.9,17.2-18.9,25c-7.1,7.9-14.9,15-23.1,21.6
		c-8,6.4-16.2,12.5-24.2,18.7c-7.2,5.6-14.2,11.3-21.4,16.8c-8.9,6.9-17.8,13.6-27.1,19.9c-10.8,7.3-21.9,14-33.4,20
		c-9.8,5.1-20,9.4-30.4,13.2c-9.1,3.3-18.4,6.7-28,8.3c-14.7,2.4-29.3,5.2-44.2,6.7c-12.6,1.3-25.2,1.2-37.8,0.3
		c-11.6-0.8-23-2.7-34.3-5.9c-12.5-3.5-24.2-8.5-35.2-15c-8.7-5.2-16.8-11.4-24.2-18.7c-9.5-9.4-18.5-19.3-27.3-29.3
		c-7.6-8.6-14.7-17.6-21.2-27.2c-4.6-6.9-9-13.9-12.6-21.3c-5.3-10.7-9.3-21.8-12.3-33.4c-2.3-8.9-3.9-17.9-4.9-26.9
		c-1.2-10.8-1.7-21.8-1.6-32.7c0.2-14.5,1.2-28.9,4-43.1c2-9.8,4.3-19.4,7.4-28.9c2.8-8.9,6.2-17.5,9.7-26.1
		c2.1-5.2,4.9-10.2,7.2-15.3c4.2-9.3,11-16.5,18.1-23.5c7.4-7.2,13.2-15.9,19.9-23.6c5.9-6.7,12-13.3,18.5-19.4
		C272.4,149.4,273.2,148,274.5,146.8z M341.7,137c-4.6,0.9-8.6,1.9-12.7,2.4c-13.5,1.6-27.1,3-40.6,4.4c-1.2,0.1-2.1,0.4-3,1.2
		c-4.1,4-8.3,7.9-12.3,11.9c-6.1,6.2-12.2,12.4-17.7,19.1c-5.5,6.8-10.7,13.9-16.9,20.1c-7.6,7.6-14.9,15.3-19.4,25.4
		c-3.7,8.2-7.5,16.2-10.6,24.6c-2.4,6.5-4.9,12.9-6.7,19.6c-2.8,10-5,20-6.7,30.3c-2,12.2-2.6,24.5-2.6,36.8c0,13.6,0.6,27.2,3,40.7
		c1.7,9.9,3.9,19.6,7.2,29c2.6,7.7,6,15,9.8,22.2c4.6,8.6,9.9,16.6,15.6,24.4c4.7,6.4,9.8,12.6,15.1,18.5
		c11.2,12.6,22.1,25.5,35.1,36.4c4.7,3.9,9.8,7.5,15,10.6c6.2,3.7,12.7,6.9,19.5,9.7c7.6,3.1,15.5,5.4,23.5,7.2
		c9.4,2.2,19,3,28.6,3.6c14.3,0.9,28.6,0.3,42.7-1.7c9.1-1.3,18.2-2.9,27.3-4.5c6.6-1.2,13.1-2.7,19.5-4.7c6.6-2,13.1-4.3,19.5-6.7
		c5.7-2.2,11.2-4.5,16.7-7.1c5.1-2.4,10.2-5,15.2-7.7c5.2-2.9,10.4-5.9,15.4-9.1c6.3-4.1,12.5-8.4,18.6-12.8
		c8.2-5.9,16.2-12.2,24.2-18.4c5.5-4.2,10.8-8.6,16.2-12.8c8.1-6.4,16.2-12.7,24.4-19c7.4-5.7,14-12.1,20.3-19
		c6.7-7.3,12.6-15.2,17.9-23.5c3.7-5.8,7-11.9,9.9-18.1c3.9-8.2,7.3-16.6,9.8-25.3c3.1-10.7,5.4-21.5,6.2-32.6
		c0.8-10.6,1.1-21.1-0.6-31.6c-1.9-12.1-6.1-23.6-11.6-34.6c-4.5-9-9.8-17.5-15.6-25.7c-7.3-10.3-15.4-20.1-23.9-29.3
		c-7-7.6-14.3-14.9-21.6-22.2c-10.6-10.6-21.3-21.1-32-31.6c-6.7-6.5-13.5-12.9-20.5-19.2c-5.9-5.4-11.7-10.9-18-15.8
		c-3.6-2.8-8.2-4.6-10.2-9.3c-0.3-0.6-0.9-0.5-1.5-0.3c-3.6,0.8-7.4,1.1-11,1.8c-14.7,2.8-28.7,7.9-42.8,12.7
		c-7,2.4-13.9,4.7-20.9,7.2c-3.3,1.2-6.6,2.6-10.2,4c3,1.5,5.5,2.9,8.1,4.1c8.3,3.7,16.7,7.3,25.1,10.9c2.9,1.2,5.9,2.7,8.9,3.2
		c14.2,2.4,25.8,9.8,36.9,18.3c5.4,4.1,10.6,8.3,15.8,12.7c10.3,8.6,20.5,17.3,30,26.8c1.1,1.1,2.5,2.2,1.5,4.1
		c-1,1.8-2.6,1.8-4.4,1.4c-2.8-0.5-5.7-1-8.6-1.4c-10.7-1.8-21.5-2.1-32.4-2.2c-1.1,0-2.3,0.1-3.3-0.5c-4.3-2.8-8.9-5.2-12.7-8.5
		c-10.8-9.5-21.3-19.4-31.9-29.1c-3.6-3.3-7-6.8-10.9-9.6c-3.8-2.8-8.1-4.8-12.2-7.2c-4.8-2.8-9.6-5.6-14.8-8.7
		c2.4,7.6,4.6,14.6,7.1,21.6c3.6,10,7.1,20,9.9,30.3c1.4,5.2,2.3,10.4,2.5,15.7c0.2,4.9,1.5,9.3,4,13.5c1.7,2.9,3,6,4.1,9.2
		c2.2,6.2,4.3,12.5,6.4,18.8c2.3,7,5.1,13.9,5.5,21.3c0.1,2.6,0.3,5.7-2.6,7.2c-2.7,1.4-5.1,0.6-7.5-1.2c-5-3.8-7.7-9.2-10.4-14.6
		c-3.1-6.1-5.4-12.5-7.8-18.8c-2.3-6.1-4.1-12.4-4.4-19c-0.6-14-5.6-26.7-11.6-39.1c-3.1-6.5-6.8-12.8-10.4-19.2
		c-1.4-2.5-2.7-5.1-5-7.7c-0.2,1.7-0.4,2.7-0.4,3.7c0,13.6-1,27.2-2.8,40.8c-1.6,12-4.7,23.6-9.1,34.8c-3.4,8.7-7.4,17.3-11.2,25.9
		c-5.9,13.1-11.6,26.4-17,39.8c-1.1,2.7-2.4,5.3-3.3,8c-0.6,1.7-2,3.2-4.1,2.4c-1.9-0.7-2.2-2.3-1.7-4.2c0.7-2.7,1.2-5.5,1.8-8.2
		c1.5-7.1,3.2-14.2,4.6-21.3c2.3-11.9,4.4-23.8,6.7-35.7c1.8-9.2,4.1-18.3,4.5-27.6c0.8-18.6,1-37.2,1.4-55.8c0-1.5,0.3-2.9,1.1-4.3
		c1.4-2.6,2.6-5.4,4-8c0.6-1.1,0.1-1.8-0.6-2.4c-0.8-0.7-1.3,0.1-1.9,0.5c-2.1,1.4-4.2,2.7-6.3,4.1c-1.9,1.3-4.2,2.4-5.5,4.1
		c-3.3,4.4-6.1,9.1-9.1,13.7c-2.1,3.2-3.8,6.8-6.5,9.4c-6.7,6.2-13.8,11.9-20.7,17.8c-3.9,3.3-8.3,6.2-11.7,9.9
		c-4.1,4.5-7.4,9.8-11.1,14.7c-8.6,11.4-16.3,23.3-25.6,34.1c-7,8.2-14.6,15.7-22,23.4c-1.3,1.4-2.9,2.1-4.7,0.7
		c-1.8-1.4-1.1-2.9-0.2-4.4c4.7-8.8,9.8-17.3,14.6-26c5.4-9.7,12.3-18.4,19.1-27.1c4-5.1,8.2-10.1,12.1-15.3
		c5.4-7.1,10.6-14.3,15.6-21.8c5.2-7.9,11.2-15.3,16.9-22.9C333.5,147.8,337.4,142.7,341.7,137z M262.7,142c1.4,0.1,2.8,0.3,4.2-0.1
		c6.5-1.9,13.3-2.2,19.9-3.9c6-1.6,12.6-1.3,18.8-2c7.5-0.9,15.1-1.1,22.5-2.5c13.6-2.6,27.4-4.4,40.9-7.3c2.9-0.6,5.9-0.7,8.8,0.2
		c0.7,0.2,1.2,1.6,2.1,0.8c0.9-0.8,0-1.8-0.4-2.5c-2.5-4.6-5.4-8.9-7.5-13.7c-1.9-4.4-4.7-5.8-9.2-6.3c-9-1.1-17.9-3.1-27,0.5
		c-9.1,3.5-18.5,6.2-27.7,9.6c-9.3,3.5-18.5,7.4-26.7,13.2C275.3,132.5,268.9,136.9,262.7,142z M541.9,192.2
		c-0.4-1.2-1.1-1.6-1.8-2.1c-2.4-2.1-4.8-4.1-7.1-6.3c-4.8-4.6-10.1-8.7-15.2-13.1c-6.4-5.5-13.2-10.5-20.1-15.4
		c-5.9-4.2-11.8-8.3-19-10.3c-8.9-2.4-17.6-5.3-26.1-8.9c-10.7-4.6-21.2-9.5-31.6-14.6c-0.5-0.3-1.1-0.9-1.7-0.1
		c-0.5,0.8-0.3,1.3,0.6,1.8c1.6,0.9,3.2,1.8,4.8,2.8c8.1,4.8,16.1,9.6,24.2,14.5c3.4,2,6.6,4,9.5,6.8c5.6,5.4,11.5,10.5,17.3,15.7
		c3.1,2.8,6.2,5.6,9.2,8.5c6.1,6,12.5,11.7,19.8,16.2c2.3,1.4,4.7,2.1,7.5,2.4c5.4,0.5,10.8,0.3,16.2,0.7
		C532.8,191.2,537.2,191.7,541.9,192.2z M365.7,269.8c1.2-0.5,1.3-1.3,1.6-1.9c2.5-5.8,4.9-11.7,7.5-17.4
		c3.8-8.6,7.8-17.1,11.2-25.8c3.7-9.5,6.2-19.3,7.6-29.4c2.1-14.7,3.1-29.5,3.2-44.3c0-3.4,0.1-6.7,0-10.1c0-0.9,0.9-2.1-0.1-2.6
		c-1-0.5-1.7,0.7-2.6,1.3c-4.9,3.1-8.9,7.3-14.2,9.9c-1.1,0.5-1.8,2.1-1.8,3.6c-0.1,6-0.4,11.9-0.5,17.9c-0.1,11.2-0.9,22.4-1,33.6
		c-0.1,14.6-4.2,28.5-6.4,42.7C369.3,254.6,368.1,262.2,365.7,269.8z M470.6,86.7c-4.7-1.6-8.7-3.5-12.9-4.9
		c-11.6-3.9-23.4-6.2-35.7-4.6c-2.6,0.3-6,0.4-7.5,2.6c-2.2,3.3-4.4,6.6-6.3,10.1c-0.8,1.5-0.8,2.9-0.4,4.6
		c0.7,3.7,2.2,7.1,3.1,10.7c1.1,4.6,0.5,9.3,0.7,13.9c0,0.6-0.3,1.4,0.7,1.5c0.7,0.1,0.9-0.5,1.2-1c0.2-0.5,0.3-1.1,0.5-1.6
		c1.3-2.2,1.4-5.4,3.8-6.6c2.2-1.1,4.5-2.2,6.8-3.2c5-2.1,9.8-4.6,14.7-6.9c5.5-2.6,11-5,16.4-7.6C460.4,91.6,465.2,89.3,470.6,86.7
		z M456.8,262.1c-0.1-0.4-0.2-1-0.3-1.5c-1.1-5.9-3.1-11.5-4.9-17.2c-1.1-3.5-2.6-6.8-3.6-10.3c-1.9-6.5-4.3-12.9-7.6-18.8
		c-1.8-3.2-3.2-6.6-3.2-10.3c-0.2-8.3-1.7-16.3-4.2-24.1c-3.7-11.5-7.8-22.9-11.7-34.3c-1.7-5.1-3.5-10.2-4.8-15.5
		c-1-3.9-2.1-4.8-5.2-2.3c-2.3,1.8-4.7,2.9-7.5,3.3c-1.4,0.2-1.9,0.8-1.6,2.5c0.7,4,2.3,7.4,4.5,10.7c4.7,7.2,9,14.8,13.1,22.3
		c3.3,6.1,6.3,12.5,8.9,18.9c3.6,8.7,6.4,17.7,7,27.2c0.5,8.1,2.5,15.7,5.5,23.2c2.2,5.5,4.3,11.1,6.9,16.4c1.9,3.8,3.8,7.6,7,10.6
		c0.4,0.4,0.7,1,1.4,0.7C457.1,263.4,456.7,262.7,456.8,262.1z M405.7,116.7c1.3-7.9-2.7-14.7-4.1-22.1c-0.3-1.6-1.3-2.4-3.1-2.5
		c-7.8-0.3-15.2-2.3-22.7-4.2c-1.9-0.5-4-2.6-5.4-1.5c-1.5,1.2,0.5,3.6,0.8,5.4c0.7,4.1,1.9,8.2,3.8,11.9c4.1,8,8.6,15.8,12.9,23.8
		c0.7,1.3,1.2,1.6,2.8,1.3c4.6-0.9,8.8-3.2,13.4-3.9c1.3-0.2,1.8-1.1,1.8-2.5C405.7,120.6,405.7,118.7,405.7,116.7z M373.4,132.2
		c-2.1-0.3-3.5-0.2-4.9,0.1c-3.3,0.6-6.6,1.8-9.9,1.8c-5.7,0.1-9.1,3.4-12.5,7.2c-4.5,5-8.1,10.7-12.3,16c-5.4,7-11,13.8-15.8,21.3
		c-5.7,9-12,17.5-18.6,25.8c-9.1,11.5-18.7,22.6-26.4,35.2c-1.5,2.4-3.5,4.8-4,7.8c3.2-3.1,6.2-6.4,8.9-9.8c3.3-4.2,6.3-8.7,9.5-13
		c4.4-6,8.9-12,13.3-18c3.1-4.2,5.6-8.9,9.3-12.5c6.5-6.3,13.6-11.8,20.5-17.7c3.9-3.3,8.3-6.2,11.7-10c4.7-5.3,7.9-11.7,11.9-17.5
		c2.5-3.5,4.4-7.5,8.6-9.6C366.5,137.4,369.6,134.8,373.4,132.2z M388.6,73.1c-4.6,0.7-8.9,2.6-12.9,5.4c-0.7,0.5-1.8,1-1.6,2
		c0.2,0.9,1.3,0.9,2.1,1.2c8.5,2.5,17.1,4.6,26,4.7c1,0,4.8-4.9,4.6-5.9c-0.1-0.2-0.3-0.4-0.5-0.6C400.9,76.4,395.1,74.1,388.6,73.1
		z M510.7,86.5c17.2-2.5,34.3-5.1,51.2-8.8c-1.3-0.9-2.5-1.5-3.8-2.1c-5.5-2.5-11-3.1-16.8-1C531.1,78.5,521.1,82.9,510.7,86.5z
		 M484.4,92.3c-1.6-0.7-3.4-0.5-4.8-1.3c-1.3-0.7-2.4-0.8-3.9-0.1c-7.5,3.6-15,6.9-22.5,10.5c-1.8,0.9-4.1,1.1-6.1,3.3
		C460,100.5,472.2,96.4,484.4,92.3z"/>
	<g>
		<path class="st1" d="M668.1,280.6c-1.9-12.1-6.1-23.6-11.6-34.6c-4.5-9-9.8-17.5-15.6-25.7c-7.3-10.3-15.4-20.1-23.9-29.3
			c-7-7.6-14.3-14.9-21.6-22.2c-10.6-10.6-21.3-21.1-32-31.6c-6.7-6.5-13.5-12.9-20.5-19.2c-5.9-5.4-11.7-10.9-18-15.8
			c-3.6-2.8-8.2-4.6-10.2-9.3c-0.3-0.6-0.9-0.5-1.5-0.3c-3.6,0.8-7.4,1.1-11,1.8c-14.7,2.8-28.7,7.9-42.8,12.7
			c-7,2.4-13.9,4.7-20.9,7.2c-3.3,1.2-6.6,2.6-10.2,4c3,1.5,5.5,2.9,8.1,4.1c8.3,3.7,16.7,7.3,25.1,10.9c2.9,1.2,5.9,2.7,8.9,3.2
			c14.2,2.4,25.8,9.8,36.9,18.3c5.4,4.1,10.6,8.3,15.8,12.7c10.3,8.6,20.5,17.3,30,26.8c1.1,1.1,2.5,2.2,1.5,4.1
			c-1,1.8-2.6,1.8-4.4,1.4c-2.8-0.5-5.7-1-8.6-1.4c-10.7-1.8-21.5-2.1-32.4-2.2c-1.1,0-2.3,0.1-3.3-0.5c-4.3-2.8-8.9-5.2-12.7-8.5
			c-10.8-9.5-21.3-19.4-31.9-29.1c-3.6-3.3-7-6.8-10.9-9.6c-3.8-2.8-8.1-4.8-12.2-7.2c-4.8-2.8-9.6-5.6-14.8-8.7
			c2.4,7.6,4.6,14.6,7.1,21.6c3.6,10,7.1,20,9.9,30.3c1.4,5.2,2.3,10.4,2.5,15.7c0.2,4.9,1.5,9.3,4,13.5c1.7,2.9,3,6,4.1,9.2
			c2.2,6.2,4.3,12.5,6.4,18.8c2.3,7,5.1,13.9,5.5,21.3c0.1,2.6,0.3,5.7-2.6,7.2c-2.7,1.4-5.1,0.6-7.5-1.2c-5-3.8-7.7-9.2-10.4-14.6
			c-3.1-6.1-5.4-12.5-7.8-18.8c-2.3-6.1-4.1-12.4-4.4-19c-0.6-14-5.6-26.7-11.6-39.1c-3.1-6.5-6.8-12.8-10.4-19.2
			c-1.4-2.5-2.7-5.1-5-7.7c-0.2,1.7-0.4,2.7-0.4,3.7c0,13.6-1,27.2-2.8,40.8c-1.6,12-4.7,23.6-9.1,34.8c-3.4,8.7-7.4,17.3-11.2,25.9
			c-5.9,13.1-11.6,26.4-17,39.8c-1.1,2.7-2.4,5.3-3.3,8c-0.6,1.7-2,3.2-4.1,2.4c-1.9-0.7-2.2-2.3-1.7-4.2c0.7-2.7,1.2-5.5,1.8-8.2
			c1.5-7.1,3.2-14.2,4.6-21.3c2.3-11.9,4.4-23.8,6.7-35.7c1.8-9.2,4.1-18.3,4.5-27.6c0.8-18.6,1-37.2,1.4-55.8
			c0-1.5,0.3-2.9,1.1-4.3c1.4-2.6,2.6-5.4,4-8c0.6-1.1,0.1-1.8-0.6-2.4c-0.8-0.7-1.3,0.1-1.9,0.5c-2.1,1.4-4.2,2.7-6.3,4.1
			c-1.9,1.3-4.2,2.4-5.5,4.1c-3.3,4.4-6.1,9.1-9.1,13.7c-2.1,3.2-3.8,6.8-6.5,9.4c-6.7,6.2-13.8,11.9-20.7,17.8
			c-3.9,3.3-8.3,6.2-11.7,9.9c-4.1,4.5-7.4,9.8-11.1,14.7c-8.6,11.4-16.3,23.3-25.6,34.1c-7,8.2-14.6,15.7-22,23.4
			c-1.3,1.4-2.9,2.1-4.7,0.7c-1.8-1.4-1.1-2.9-0.2-4.4c4.7-8.8,9.8-17.3,14.6-26c5.4-9.7,12.3-18.4,19.1-27.1
			c4-5.1,8.2-10.1,12.1-15.3c5.4-7.1,10.6-14.3,15.6-21.8c5.2-7.9,11.2-15.3,16.9-22.9c3.8-5.1,7.7-10.2,12-15.9
			c-4.6,0.9-8.6,1.9-12.7,2.4c-13.5,1.6-27.1,3-40.6,4.4c-1.2,0.1-2.1,0.4-3,1.2c-4.1,4-8.3,7.9-12.3,11.9
			c-6.1,6.2-12.2,12.4-17.7,19.1c-5.5,6.8-10.7,13.9-16.9,20.1c-7.6,7.6-14.9,15.3-19.4,25.4c-3.7,8.2-7.5,16.2-10.6,24.6
			c-2.4,6.5-4.9,12.9-6.7,19.6c-2.8,10-5,20-6.7,30.3c-2,12.2-2.6,24.5-2.6,36.8c0,13.6,0.6,27.2,3,40.7c1.7,9.9,3.9,19.6,7.2,29
			c2.6,7.7,6,15,9.8,22.2c4.6,8.6,9.9,16.6,15.6,24.4c4.7,6.4,9.8,12.6,15.1,18.5c11.2,12.6,22.1,25.5,35.1,36.4
			c4.7,3.9,9.8,7.5,15,10.6c6.2,3.7,12.7,6.9,19.5,9.7c7.6,3.1,15.5,5.4,23.5,7.2c9.4,2.2,19,3,28.6,3.6c14.3,0.9,28.6,0.3,42.7-1.7
			c9.1-1.3,18.2-2.9,27.3-4.5c6.6-1.2,13.1-2.7,19.5-4.7c6.6-2,13.1-4.3,19.5-6.7c5.7-2.2,11.2-4.5,16.7-7.1
			c5.1-2.4,10.2-5,15.2-7.7c5.2-2.9,10.4-5.9,15.4-9.1c6.3-4.1,12.5-8.4,18.6-12.8c8.2-5.9,16.2-12.2,24.2-18.4
			c5.5-4.2,10.8-8.6,16.2-12.8c8.1-6.4,16.2-12.7,24.4-19c7.4-5.7,14-12.1,20.3-19c6.7-7.3,12.6-15.2,17.9-23.5
			c3.7-5.8,7-11.9,9.9-18.1c3.9-8.2,7.3-16.6,9.8-25.3c3.1-10.7,5.4-21.5,6.2-32.6C669.4,301.6,669.7,291,668.1,280.6z"/>
		<path class="st1" d="M410.9,105.3c1.1,4.6,0.5,9.3,0.7,13.9c0,0.6-0.3,1.4,0.7,1.5c0.7,0.1,0.9-0.5,1.2-1c0.2-0.5,0.3-1.1,0.5-1.6
			c1.3-2.2,1.4-5.4,3.8-6.6c2.2-1.1,4.5-2.2,6.8-3.2c5-2.1,9.8-4.6,14.7-6.9c5.5-2.6,11-5,16.4-7.6c4.8-2.3,9.6-4.6,15-7.2
			c-4.7-1.6-8.7-3.5-12.9-4.9c-11.6-3.9-23.4-6.2-35.7-4.6c-2.6,0.3-6,0.4-7.5,2.6c-2.2,3.3-4.4,6.6-6.3,10.1
			c-0.8,1.5-0.8,2.9-0.4,4.6C408.5,98.2,410,101.6,410.9,105.3z"/>
	</g>
	<g>
		<path class="st2" d="M305.7,136c7.5-0.9,15.1-1.1,22.5-2.5c13.6-2.6,27.4-4.4,40.9-7.3c2.9-0.6,5.9-0.7,8.8,0.2
			c0.7,0.2,1.2,1.6,2.1,0.8c0.9-0.8,0-1.8-0.4-2.5c-2.5-4.6-5.4-8.9-7.5-13.7c-1.9-4.4-4.7-5.8-9.2-6.3c-9-1.1-17.9-3.1-27,0.5
			c-9.1,3.5-18.5,6.2-27.7,9.6c-9.3,3.5-18.5,7.4-26.7,13.2c-6.3,4.6-12.8,9-18.9,14c1.4,0.1,2.8,0.3,4.2-0.1
			c6.5-1.9,13.3-2.2,19.9-3.9C292.9,136.4,299.4,136.7,305.7,136z"/>
		<path class="st2" d="M540.1,190c-2.4-2.1-4.8-4.1-7.1-6.3c-4.8-4.6-10.1-8.7-15.2-13.1c-6.4-5.5-13.2-10.5-20.1-15.4
			c-5.9-4.2-11.8-8.3-19-10.3c-8.9-2.4-17.6-5.3-26.1-8.9c-10.7-4.6-21.2-9.5-31.6-14.6c-0.5-0.3-1.1-0.9-1.7-0.1
			c-0.5,0.8-0.3,1.3,0.6,1.8c1.6,0.9,3.2,1.8,4.8,2.8c8.1,4.8,16.1,9.6,24.2,14.5c3.4,2,6.6,4,9.5,6.8c5.6,5.4,11.5,10.5,17.3,15.7
			c3.1,2.8,6.2,5.6,9.2,8.5c6.1,6,12.5,11.7,19.8,16.2c2.3,1.4,4.7,2.1,7.5,2.4c5.4,0.5,10.8,0.3,16.2,0.7c4.4,0.4,8.8,0.9,13.5,1.4
			C541.5,191,540.7,190.6,540.1,190z"/>
		<path class="st2" d="M396.8,138.2c-1-0.5-1.7,0.7-2.6,1.3c-4.9,3.1-8.9,7.3-14.2,9.9c-1.1,0.5-1.8,2.1-1.8,3.6
			c-0.1,6-0.4,11.9-0.5,17.9c-0.1,11.2-0.9,22.4-1,33.6c-0.1,14.6-4.2,28.5-6.4,42.7c-1.2,7.5-2.3,15.1-4.7,22.6
			c1.2-0.5,1.3-1.3,1.6-1.9c2.5-5.8,4.9-11.7,7.5-17.4c3.8-8.6,7.8-17.1,11.2-25.8c3.7-9.5,6.2-19.3,7.6-29.4
			c2.1-14.7,3.1-29.5,3.2-44.3c0-3.4,0.1-6.7,0-10.1C396.9,139.9,397.8,138.7,396.8,138.2z"/>
		<path class="st2" d="M456.6,260.5c-1.1-5.9-3.1-11.5-4.9-17.2c-1.1-3.5-2.6-6.8-3.6-10.3c-1.9-6.5-4.3-12.9-7.6-18.8
			c-1.8-3.2-3.2-6.6-3.2-10.3c-0.2-8.3-1.7-16.3-4.2-24.1c-3.7-11.5-7.8-22.9-11.7-34.3c-1.7-5.1-3.5-10.2-4.8-15.5
			c-1-3.9-2.1-4.8-5.2-2.3c-2.3,1.8-4.7,2.9-7.5,3.3c-1.4,0.2-1.9,0.8-1.6,2.5c0.7,4,2.3,7.4,4.5,10.7c4.7,7.2,9,14.8,13.1,22.3
			c3.3,6.1,6.3,12.5,8.9,18.9c3.6,8.7,6.4,17.7,7,27.2c0.5,8.1,2.5,15.7,5.5,23.2c2.2,5.5,4.3,11.1,6.9,16.4c1.9,3.8,3.8,7.6,7,10.6
			c0.4,0.4,0.7,1,1.4,0.7c0.7-0.3,0.3-1,0.4-1.6C456.8,261.6,456.7,261.1,456.6,260.5z"/>
		<path class="st2" d="M374.9,103.8c4.1,8,8.6,15.8,12.9,23.8c0.7,1.3,1.2,1.6,2.8,1.3c4.6-0.9,8.8-3.2,13.4-3.9
			c1.3-0.2,1.8-1.1,1.8-2.5c-0.1-2,0-3.9,0-5.9c1.3-7.9-2.7-14.7-4.1-22.1c-0.3-1.6-1.3-2.4-3.1-2.5c-7.8-0.3-15.2-2.3-22.7-4.2
			c-1.9-0.5-4-2.6-5.4-1.5c-1.5,1.2,0.5,3.6,0.8,5.4C371.8,96,373.1,100.1,374.9,103.8z"/>
		<path class="st2" d="M368.5,132.3c-3.3,0.6-6.6,1.8-9.9,1.8c-5.7,0.1-9.1,3.4-12.5,7.2c-4.5,5-8.1,10.7-12.3,16
			c-5.4,7-11,13.8-15.8,21.3c-5.7,9-12,17.5-18.6,25.8c-9.1,11.5-18.7,22.6-26.4,35.2c-1.5,2.4-3.5,4.8-4,7.8
			c3.2-3.1,6.2-6.4,8.9-9.8c3.3-4.2,6.3-8.7,9.5-13c4.4-6,8.9-12,13.3-18c3.1-4.2,5.6-8.9,9.3-12.5c6.5-6.3,13.6-11.8,20.5-17.7
			c3.9-3.3,8.3-6.2,11.7-10c4.7-5.3,7.9-11.7,11.9-17.5c2.5-3.5,4.4-7.5,8.6-9.6c3.6-1.8,6.7-4.5,10.5-7.1
			C371.4,131.9,369.9,132,368.5,132.3z"/>
		<path class="st2" d="M376.2,81.7c8.5,2.5,17.1,4.6,26,4.7c1,0,4.8-4.9,4.6-5.9c-0.1-0.2-0.3-0.4-0.5-0.6
			c-5.3-3.6-11.1-5.9-17.6-6.9c-4.6,0.7-8.9,2.6-12.9,5.4c-0.7,0.5-1.8,1-1.6,2C374.3,81.4,375.4,81.5,376.2,81.7z"/>
		<path class="st2" d="M558.2,75.7c-5.5-2.5-11-3.1-16.8-1c-10.3,3.8-20.3,8.2-30.6,11.8c17.2-2.5,34.3-5.1,51.2-8.8
			C560.7,76.9,559.4,76.3,558.2,75.7z"/>
		<path class="st2" d="M479.6,91c-1.3-0.7-2.4-0.8-3.9-0.1c-7.5,3.6-15,6.9-22.5,10.5c-1.8,0.9-4.1,1.1-6.1,3.3
			c12.9-4.3,25.1-8.4,37.3-12.5C482.8,91.6,481.1,91.8,479.6,91z"/>
	</g>
</g>
</svg>
